PathFileType	4	(X/Y/Z)	/Users/itak/Documents/Research/Walk-IL/dataset/trc/00569_00009.trc
DataRate	CameraRate	NumFrames	NumMarkers	Units	OrigDataRate	OrigDataStartFrame	OrigNumFrames
100.000000	100.000000	4	53	mm	100.000000	0	561
Frame#	Time	RPSI			LPSI			L3			STRN			T10			C7			CLAV			RBAK			LBAK			LSHO			LUPA			LAEL			LAOL			LWTS			LWPS			LFRA			LIFD			LHPS			LHTS			RSHO			RUPA			RAEL			RAOL			RWTS			RWPS			RFRA			RIFD			RHTS			RHPS			RBHD			LFHD			RFHD			LBHD			LHIP			RHIP			RASI			LASI			LKNE			LTHI			LANK			LTIP			LTOE			LMT1			LMT5			LHEE			RKNE			RTHI			RANK			RTIP			RTOE			RMT1			RMT5			RHEE			
		X1	Y1	Z1	X2	Y2	Z2	X3	Y3	Z3	X4	Y4	Z4	X5	Y5	Z5	X6	Y6	Z6	X7	Y7	Z7	X8	Y8	Z8	X9	Y9	Z9	X10	Y10	Z10	X11	Y11	Z11	X12	Y12	Z12	X13	Y13	Z13	X14	Y14	Z14	X15	Y15	Z15	X16	Y16	Z16	X17	Y17	Z17	X18	Y18	Z18	X19	Y19	Z19	X20	Y20	Z20	X21	Y21	Z21	X22	Y22	Z22	X23	Y23	Z23	X24	Y24	Z24	X25	Y25	Z25	X26	Y26	Z26	X27	Y27	Z27	X28	Y28	Z28	X29	Y29	Z29	X30	Y30	Z30	X31	Y31	Z31	X32	Y32	Z32	X33	Y33	Z33	X34	Y34	Z34	X35	Y35	Z35	X36	Y36	Z36	X37	Y37	Z37	X38	Y38	Z38	X39	Y39	Z39	X40	Y40	Z40	X41	Y41	Z41	X42	Y42	Z42	X43	Y43	Z43	X44	Y44	Z44	X45	Y45	Z45	X46	Y46	Z46	X47	Y47	Z47	X48	Y48	Z48	X49	Y49	Z49	X50	Y50	Z50	X51	Y51	Z51	X52	Y52	Z52	X53	Y53	Z53	

1	0	-1242.012573242188	1015.174926757812	-160.4912414550781	-1243.051879882812	1018.659057617188	-294.6874694824219	-1237.421508789062	1101.840698242188	-231.7242889404297	-1015.556762695312	1299.292236328125	-246.1854705810547	-1253.222045898438	1227.462036132812	-232.2700042724609	-1218.4541015625	1503.806518554688	-222.4942626953125	-1041.583984375	1409.687866210938	-244.6470489501953	-1278.322509765625	1373.648193359375	-133.8450927734375	-1257.311767578125	1449.150512695312	-310.3544616699219	-1168.936889648438	1477.4716796875	-401.5760803222656	-1182.187622070312	1347.715942382812	-475.9434509277344	-1152.643188476562	1128.731079101562	-500.28369140625	-1229.01904296875	1114.963134765625	-435.945068359375	-1035.481323242188	895.931884765625	-467.4378662109375	-1090.396362304688	867.6275024414062	-529.8687744140625	-1124.82275390625	1044.783081054688	-510.4082946777344	-1006.394226074219	744.6480102539062	-475.9326782226562	-1076.777954101562	809.0594482421875	-522.8148803710938	-1018.299926757812	818.8518676757812	-489.2603759765625	-1150.4619140625	1468.434814453125	-71.40903472900391	-1162.744018554688	1403.27099609375	-1.703108072280884	-1155.646728515625	1113.692749023438	42.84892654418945	-1208.793701171875	1094.634155273438	14.1372652053833	-1012.294555664062	898.0589599609375	7.070854663848877	-1058.97314453125	876.126708984375	72.11014556884766	-1143.74365234375	1058.048461914062	49.54011535644531	-1001.223937988281	724.6746215820312	9.641098022460938	-981.2312622070312	807.0180053710938	23.00089263916016	-1039.779907226562	802.2762451171875	70.50621795654297	-1140.170654296875	1691.345947265625	-165.8317565917969	-980.375	1708.356323242188	-297.6472473144531	-1000.434448242188	1705.744506835938	-155.1604766845703	-1109.241577148438	1692.277954101562	-328.7219543457031	-1118.27099609375	937.8692016601562	-429.217041015625	-1117.864135742188	939.9450073242188	-40.43664932250977	-1027.959594726562	973.6978149414062	-100.730842590332	-1038.95751953125	963.81982421875	-376.9000854492188	-1097.751220703125	492.6051025390625	-358.2922058105469	-1091.932250976562	656.9739990234375	-400.1390686035156	-1183.046142578125	25.88273048400879	-342.4823303222656	-1162.49609375	248.1036224365234	-360.1344299316406	-970.6277465820312	37.94853210449219	-287.1861877441406	-1041.98291015625	43.38114166259766	-251.642333984375	-1060.497924804688	30.95516967773438	-358.7804260253906	-1251.214477539062	28.92488288879395	-286.2214660644531	-1099.39306640625	496.24072265625	-94.5303955078125	-1080.28662109375	784.3668212890625	-46.53785705566406	-1193.735595703125	37.44430923461914	-105.4523086547852	-1106.240112304688	354.4213256835938	-108.0937423706055	-977.614501953125	36.67054748535156	-164.1497039794922	-1046.158935546875	32.43070220947266	-202.4590301513672	-1060.453735351562	40.12814331054688	-100.5823364257812	-1253.870239257812	25.5181770324707	-150.8359222412109	
2	0.01	-1242.00048828125	1015.20703125	-160.5071716308594	-1242.97314453125	1018.710998535156	-294.7036437988281	-1237.356689453125	1101.810180664062	-231.7454986572266	-1015.396850585938	1299.359619140625	-246.0234527587891	-1253.08203125	1227.459106445312	-232.3426055908203	-1218.448608398438	1503.796264648438	-222.5052947998047	-1041.524169921875	1409.731323242188	-244.4912567138672	-1278.371215820312	1373.600219726562	-133.9351501464844	-1257.229858398438	1449.116943359375	-310.3370056152344	-1168.797607421875	1477.45458984375	-401.527587890625	-1182.241943359375	1347.80322265625	-475.9633483886719	-1153.188110351562	1128.797973632812	-500.3439636230469	-1229.741577148438	1115.188720703125	-436.1879272460938	-1036.395263671875	895.9307861328125	-467.0916442871094	-1091.175537109375	867.6105346679688	-529.6401977539062	-1125.482666015625	1044.782592773438	-510.3960571289062	-1007.308715820312	744.6567993164062	-475.4270629882812	-1077.575561523438	809.0303344726562	-522.5104370117188	-1019.044067382812	818.9266357421875	-488.81103515625	-1150.592529296875	1468.44482421875	-71.37911987304688	-1162.961669921875	1403.262084960938	-1.70891797542572	-1155.965576171875	1113.68115234375	42.84018707275391	-1209.043090820312	1094.626342773438	14.00951480865479	-1012.6005859375	898.0388793945312	7.13221263885498	-1059.3427734375	876.098388671875	72.12065124511719	-1144.00537109375	1058.0244140625	49.47328567504883	-1001.536315917969	724.6573486328125	9.704010963439941	-981.5794677734375	806.990478515625	23.1472225189209	-1040.118774414062	802.2227172851562	70.51016235351562	-1140.425170898438	1691.339721679688	-165.8342132568359	-980.6156616210938	1708.552856445312	-297.5621948242188	-1000.757446289062	1705.98046875	-155.0848388671875	-1109.411376953125	1692.283813476562	-328.722900390625	-1118.108032226562	937.9005737304688	-429.1631469726562	-1117.927001953125	939.9495849609375	-40.38809967041016	-1028.087158203125	973.6679077148438	-100.659782409668	-1038.853637695312	963.806396484375	-376.7922973632812	-1097.776611328125	492.5975646972656	-358.2627258300781	-1091.942993164062	656.9669189453125	-400.1286315917969	-1183.042236328125	25.87910270690918	-342.4781494140625	-1162.505004882812	248.1123962402344	-360.1273803710938	-970.626708984375	37.94674301147461	-287.1817321777344	-1041.97900390625	43.38338470458984	-251.6295776367188	-1060.48095703125	30.95358276367188	-358.7835998535156	-1251.208862304688	28.92717552185059	-286.225341796875	-1099.418212890625	496.2338256835938	-94.52561187744141	-1080.318115234375	784.3555908203125	-46.52011489868164	-1193.744384765625	37.44320678710938	-105.4429016113281	-1106.239501953125	354.4151611328125	-108.0843124389648	-977.5614624023438	36.65171813964844	-164.22900390625	-1046.15966796875	32.42287063598633	-202.4668426513672	-1060.453857421875	40.12594604492188	-100.585807800293	-1253.874267578125	25.51380920410156	-150.8216247558594	
3	0.02	-1241.983032226562	1015.254028320312	-160.5279083251953	-1242.8701171875	1018.783752441406	-294.722900390625	-1237.270141601562	1101.770874023438	-231.7741088867188	-1015.196228027344	1299.444213867188	-245.8223876953125	-1252.897827148438	1227.453735351562	-232.4380035400391	-1218.442749023438	1503.781982421875	-222.520263671875	-1041.445434570312	1409.78564453125	-244.2986297607422	-1278.43408203125	1373.534545898438	-134.0578918457031	-1257.12158203125	1449.073120117188	-310.3193054199219	-1168.615600585938	1477.437622070312	-401.4653625488281	-1182.304443359375	1347.92041015625	-475.99365234375	-1153.897827148438	1128.888549804688	-500.423828125	-1230.68896484375	1115.491577148438	-436.5101623535156	-1037.622436523438	895.907958984375	-466.6430969238281	-1092.215942382812	867.5836791992188	-529.3462524414062	-1126.353393554688	1044.789428710938	-510.3814086914062	-1008.558898925781	744.6364135742188	-474.7760620117188	-1078.65576171875	808.9859008789062	-522.1196899414062	-1020.067993164062	818.9940185546875	-488.2347412109375	-1150.765502929688	1468.456665039062	-71.34005737304688	-1163.246215820312	1403.24951171875	-1.717329382896423	-1156.375854492188	1113.662841796875	42.81340789794922	-1209.370849609375	1094.615112304688	13.83899879455566	-1012.999084472656	898.01513671875	7.208953380584717	-1059.830322265625	876.0591430664062	72.12810516357422	-1144.354370117188	1057.990844726562	49.38070678710938	-1001.934814453125	724.6300659179688	9.759944915771484	-982.0405883789062	806.9497680664062	23.32676696777344	-1040.575927734375	802.1528930664062	70.51377868652344	-1140.77392578125	1691.330688476562	-165.844482421875	-980.9342651367188	1708.818115234375	-297.4486694335938	-1001.190612792969	1706.291381835938	-154.9868011474609	-1109.640014648438	1692.290771484375	-328.7265930175781	-1117.913940429688	937.9330444335938	-429.0848388671875	-1118.010375976562	939.956298828125	-40.32514953613281	-1028.261840820312	973.623291015625	-100.5681533813477	-1038.710205078125	963.78857421875	-376.6546936035156	-1097.815795898438	492.5892028808594	-358.2287292480469	-1091.962646484375	656.9547729492188	-400.1189270019531	-1183.037475585938	25.8748722076416	-342.4732971191406	-1162.5185546875	248.1239013671875	-360.12109375	-970.6260986328125	37.9456672668457	-287.1756286621094	-1041.974487304688	43.38632583618164	-251.6145172119141	-1060.461547851562	30.95182228088379	-358.7870178222656	-1251.20263671875	28.9297046661377	-286.2296752929688	-1099.451904296875	496.2261657714844	-94.52134704589844	-1080.364135742188	784.3424682617188	-46.49851989746094	-1193.754638671875	37.44205093383789	-105.4291687011719	-1106.241333007812	354.4086608886719	-108.0738906860352	-977.4912109375	36.62885665893555	-164.3324584960938	-1046.160278320312	32.41347503662109	-202.4764556884766	-1060.453735351562	40.12316513061523	-100.5900421142578	-1253.879028320312	25.50772094726562	-150.8029937744141	
4	0.03	-1241.9599609375	1015.317565917969	-160.552734375	-1242.745483398438	1018.878051757812	-294.744140625	-1237.162719726562	1101.724487304688	-231.8101348876953	-1014.965087890625	1299.541870117188	-245.5938110351562	-1252.67431640625	1227.445068359375	-232.5533294677734	-1218.437622070312	1503.763671875	-222.5392150878906	-1041.349487304688	1409.848754882812	-244.0804443359375	-1278.508422851562	1373.451416015625	-134.2130126953125	-1256.989501953125	1449.020629882812	-310.304931640625	-1168.396606445312	1477.424438476562	-401.3919677734375	-1182.369995117188	1348.066040039062	-476.0355224609375	-1154.75048828125	1129.001953125	-500.5215148925781	-1231.834106445312	1115.867431640625	-436.9041137695312	-1039.145385742188	895.8529052734375	-466.1083068847656	-1093.500244140625	867.5451049804688	-528.9985961914062	-1127.413696289062	1044.806884765625	-510.365234375	-1010.141784667969	744.569091796875	-474.0050048828125	-1080.00927734375	808.9241333007812	-521.6585693359375	-1021.373168945312	819.034423828125	-487.555419921875	-1150.977783203125	1468.46923828125	-71.29302215576172	-1163.590209960938	1403.233154296875	-1.728781342506409	-1156.86279296875	1113.636474609375	42.76095199584961	-1209.768798828125	1094.600463867188	13.62845611572266	-1013.477783203125	897.98828125	7.296204566955566	-1060.424438476562	876.0088500976562	72.1290283203125	-1144.7841796875	1057.947875976562	49.26180648803711	-1002.405029296875	724.5906372070312	9.793985366821289	-982.6030883789062	806.8939208984375	23.52607345581055	-1041.145263671875	802.0684814453125	70.51459503173828	-1141.215087890625	1691.318603515625	-165.8652038574219	-981.323974609375	1709.148803710938	-297.3086242675781	-1001.727355957031	1706.669677734375	-154.8692932128906	-1109.924926757812	1692.298461914062	-328.7341918945312	-1117.707397460938	937.9600830078125	-428.9800109863281	-1118.113037109375	939.965087890625	-40.2500114440918	-1028.481567382812	973.5626831054688	-100.4598693847656	-1038.5283203125	963.7665405273438	-376.4932556152344	-1097.871215820312	492.5809020996094	-358.1933898925781	-1091.993530273438	656.9365844726562	-400.1121826171875	-1183.032470703125	25.87047386169434	-342.4682312011719	-1162.537231445312	248.1375579833984	-360.1170959472656	-970.626220703125	37.94594192504883	-287.1678771972656	-1041.969848632812	43.38990020751953	-251.5984039306641	-1060.44189453125	30.9501838684082	-358.7900390625	-1251.196411132812	28.93214416503906	-286.2340087890625	-1099.494384765625	496.2186279296875	-94.5185546875	-1080.426025390625	784.3286743164062	-46.47452163696289	-1193.765625	37.44098663330078	-105.4107971191406	-1106.24755859375	354.4030151367188	-108.0638122558594	-977.406494140625	36.60367965698242	-164.4556274414062	-1046.160888671875	32.40323638916016	-202.4873352050781	-1060.453002929688	40.11989212036133	-100.5948257446289	-1253.884033203125	25.49994850158691	-150.7806243896484	
